<mxfile host="app.diagrams.net" modified="2023-11-02T07:29:42.748Z" agent="Mozilla/5.0 (Windows NT 10.0; Win64; x64) AppleWebKit/537.36 (KHTML, like Gecko) Chrome/118.0.0.0 Safari/537.36" version="22.0.8" etag="fYrIrY5rNAJAlUwWffym" type="github">
  <diagram name="第 1 页" id="Sny6aSZBklL-eJnHR8kn">
    <mxGraphModel>
      <root>
        <mxCell id="0" />
        <mxCell id="1" parent="0" />
      </root>
    </mxGraphModel>
  </diagram>
</mxfile>
